<?xml version="1.0" encoding="utf-8"?>
<!-- Generator: Adobe Illustrator 17.1.0, SVG Export Plug-In . SVG Version: 6.00 Build 0)  -->
<!DOCTYPE svg PUBLIC "-//W3C//DTD SVG 1.1//EN" "http://www.w3.org/Graphics/SVG/1.1/DTD/svg11.dtd">
<svg version="1.1" id="Layer_1" xmlns="http://www.w3.org/2000/svg" xmlns:xlink="http://www.w3.org/1999/xlink" x="0px" y="0px"
	 viewBox="0 195 792 221.9" enable-background="new 0 195 792 221.9" xml:space="preserve">
<ellipse fill="#D39371" stroke="#D39371" stroke-width="0.8785" stroke-miterlimit="10" cx="64.6" cy="229.3" rx="19.4" ry="19.2"/>
<circle fill="#8B9F3B" cx="64.6" cy="229.3" r="17"/>
<path fill="#D39371" d="M31.5,386.4H2.1c-1.2,0-2.1-0.9-2.1-2.1V198.4c0-1.1,1-2,2.1-1.9l29.3,2.2c1.5,0.1,2.7,1.4,2.7,2.9v182.3
	C34.1,385.2,32.9,386.4,31.5,386.4z"/>
<path fill="#D39371" stroke="#D39371" stroke-width="0.8785" stroke-miterlimit="10" d="M78.8,386.4H49.9c-1.4,0-2.5-1.1-2.5-2.5
	V252.6c0-1.6,1.3-2.8,2.9-2.8l27.9,1c1.9,0.1,3.5,1.7,3.5,3.6v129.1C81.6,385.1,80.4,386.4,78.8,386.4z"/>
<path fill="#D39371" d="M96.5,242.5v33.8v34v104.2c0,1.4,1.2,2.5,2.6,2.4l26.7-0.9c2.1-0.1,3.8-1.7,3.8-3.8V310.3h19
	c1.7,0,3.1-1.4,3.1-3.1v-27.8c0-1.7-1.4-3.1-3.1-3.1h-19.1V243v-0.5c-0.8-12.8,8.5-11.8,8.5-11.8h15c1.6-0.1,1.8-1.9,1.8-1.9
	l0.4-28.1c0-1.6-2.1-2.8-2.1-2.8c-4.7-2.8-13.4-2.9-13.4-2.9c-23.9,0-43.2,19.3-43.2,43.2V242.5"/>
<path fill="#D39371" d="M203.9,247.8h-0.8c-22.3,0-40.3,18.1-40.3,40.3v47.9v11.5c0,19.6,14.2,36,32.9,40.4
	c3.7,0.9,8.9,0.9,12.6,0.3c4.4-0.7,12.5-2,26-3.9c0.8-0.1,1.3-0.8,1.3-1.5V357c0-1.6-1.3-2.9-2.9-2.9h-28.2c-4.5,0-8.1-3.6-8.1-8.1
	v-9.9h32.9c10.1,0,18.2-8.2,18.2-18.2v-26.5C247.4,267.3,227.9,247.8,203.9,247.8z"/>
<path fill="#D39371" d="M302.7,251.5l-13.1,1.3h-1.8V201c0-1.6-1.3-3-3-3h-18.2c-1.6,0-3,1.3-3,3v182.4c0,1.6,1.3,3,3,3h18.2
	c1.6,0,3-1.3,3-3v-107h14.3c9.7,0,17.5,7.8,17.5,17.5v89.8c0,1.4,1.2,2.6,2.6,2.6h17.2c1.4,0,2.6-1.2,2.6-2.6V309v-18.1
	C342.1,269.1,324.5,251.5,302.7,251.5z"/>
<g>
	<path fill="#D39371" d="M394.9,388.6c-0.1,0-0.1,0-0.2,0c-0.1,0-0.2,0-0.2,0H394.9z"/>
	<path fill="#D39371" d="M434.2,326.6l0-6.3v-29.9c0-21.9-17.7-38.4-39.6-38.4c0,0-4.5-0.6-13.6,1.5l-10.8,3
		c-1.2,0.3-2.1,1.4-2.1,2.6v14.2c0,1.8,1.5,3.2,3.3,3l27.7-2.2c7,0,12.7,5.7,12.7,12.7v14.5c-3.7-1.3-7.6-2-11.8-2h-5.5
		c-21.2,0-38.5,17.2-38.5,38.5v12c0,20.7,18,38.7,38.7,38.9c22.2-0.1,40.1-18.1,40.1-40.3l-0.3-10.6
		C434.3,335.1,434.4,329.2,434.2,326.6z"/>
</g>
<path fill="#D39371" d="M631.3,381.9L595,317.2c-0.7-1.2-0.7-2.7,0-3.9l33.3-56c1.1-1.8-0.2-4.1-2.3-4.2l-20.8-0.3
	c-1,0-1.9,0.5-2.4,1.3l-32.1,52.8V201.4c0-1.7-1.4-3.1-3.1-3.1H550c-1.7,0-3.1,1.4-3.1,3.1v182.3c0,1.6,1.3,2.9,2.9,2.9h18.1
	c1.6,0,2.9-1.3,2.9-2.9v-61l35.9,63c0.5,0.9,1.4,1.4,2.5,1.4l19.5-0.4C631,386.6,632.5,384,631.3,381.9z"/>
<path fill="#D39371" d="M785.5,253.4c-9.7-3.6-15.6-2.3-17.6-2.2c-21.4,1.7-38.2,19.6-38.2,41.5v6.1v85.7c0,1.4,1.1,2.5,2.5,2.5
	h18.1c1.4,0,2.5-1.1,2.5-2.5v-91.8c0-9.8,7.9-17.7,17.7-17.7h19c1.4,0,2.5-1.1,2.5-2.5v-14c0-1.4-0.6-2.7-1.9-3L785.5,253.4z"/>
<path fill="#D39371" d="M672.4,250.9h0.5c-21.8,0-39.5,17.7-39.5,39.5V332v18.3c0,21.4,17.3,38.6,38.8,38.6h0.4h0.6l25.1-4.4
	c1.2-0.2,2-1.3,2-2.5l-0.6-14.5c0-1.4-1.2-2.6-2.7-2.6h-24.7c-7.9,0-14.3-6.4-14.3-14.3V332H698c7.6,0,13.8-6.2,13.8-13.8v-27.8
	C711.8,268.6,694.2,250.9,672.4,250.9z"/>
<path fill="#D39371" d="M489.9,252h0.2h-0.4c-20.5,0-37.1,16.6-37.1,37.1v3.9v54.7v3.9c0,20.5,17,36.2,37.1,37.1h0.4h0.9h1.7
	c20.7,0,37.5-16.8,37.5-37.5v0.3v-0.2c0-1.3-1-2.4-2.4-2.5l-17.9-1c-1.4-0.1-2.7,1.1-2.7,2.5v0.2c0,8.2-6.6,14.8-14.8,14.8h-0.3
	c-8.8,0-15.9-7.1-15.9-15.9v-58.6c0-8.5,6.9-15.3,15.3-15.3h0.3c8.6,0,15.5,6.9,15.5,15.5v2.4c0,1.6,1.3,2.9,2.9,2.9h17.1
	c1.6,0,2.9-1.3,2.9-2.9v-1.6V289c0-20.5-16.6-37-37-37L489.9,252L489.9,252z"/>
<polygon fill="#8B9F3B" points="31.1,383.7 2.8,383.7 2.8,199.9 31.1,201.1 "/>
<polygon fill="#8B9F3B" points="78.6,253.7 50.4,252.4 50.4,383.7 78.6,383.7 "/>
<path fill="#8B9F3B" d="M151.9,228.3l1.1-27.9l-1.7-0.8c-3.3-1.4-6.8-2.2-10.4-2.2h-0.5c-22.9,0-41.5,18.6-41.5,41.5v8.1v31.5v29.2
	v107l28.6-1.5V307.8h22.1v-29.2h-22.1v-38.8c0-6.3,5.1-11.5,11.5-11.5C138.9,228.3,151.9,228.3,151.9,228.3z"/>
<path fill="#8B9F3B" d="M285.1,256.7v-56.3H267v53.8v20.2v109.8h18.1V274.4h18.2c10.1,0,18.4,8.2,18.4,18.4v91.4h18.3V297v-6
	c0-18.6-13.8-34-31.8-36.4c-2.1-0.3-6.5-0.6-11.5-0.3c-1.8,0.1-3.5,0.4-5.3,0.8L285.1,256.7z"/>
<path fill="#8B9F3B" d="M375.2,257.4l-5,1.9l1.3,14.1l28.4-1.7c7.1,0,14.1,6.4,14.2,14.5v18.6c-4.1-1.9-8.7-3-13.6-3h-7.3
	c-18.6,0-33.6,15.1-33.6,33.6v13.9c0,19.8,16.1,35.9,35.9,35.9h0.7c20,0,36.3-16.2,36.3-36.3v-8.7v-6.5v-37.9v-3.7c0-21-17-38-38-38
	l-8.9,0.8C382,255.3,378.5,256.1,375.2,257.4z"/>
<rect x="549.8" y="201" fill="#8B9F3B" width="18.8" height="183.1"/>
<path fill="#8B9F3B" d="M629.1,384.1l-38.3-68.8l35.8-59.4l-21.9,0l-34.3,58.4c-0.5,0.9-0.6,2.1,0,3l9.3,16.3l0,0l29,50.6
	L629.1,384.1z"/>
<path fill="#8B9F3B" d="M491.1,253.9h0.3H491.1c-19.8,0-35.8,16-35.8,35.8v2.2v51.5v8.3c0,19.1,15.5,34.5,34.5,34.5h0.3h0.4h3
	c19.3,0,35-15.7,35-35v-0.4l0,0l-18.5-0.8v0.2c0,9.3-7.6,16.9-16.9,16.9h-2.5c-9.3,0-16.8-7.5-16.8-16.8v-60
	c0-9.6,7.8-17.3,17.3-17.3h0.8c9.9,0,17.9,8,17.9,17.9v2.5h18.6v-1.6v-0.4c0-20.8-16.8-37.6-37.6-37.6
	C490.9,253.9,491.1,253.9,491.1,253.9z"/>
<path fill="#8B9F3B" d="M673.2,254h-0.7c-19.8,0-35.9,16.1-35.9,35.9v34.4v4.8V341v10.5c0,19.2,15.5,34.7,34.7,34.7h0.4l26.1-4.2
	l-0.7-14.7h-23.6c-10,0-18.1-8.1-18.1-18.1v-20.1h45.5c4.9,0,8.9-4,8.9-8.9v-29.7C709.7,270.3,693.3,254,673.2,254z"/>
<path fill="#8B9F3B" d="M789.6,258.4l-5.2-2.1c-2.7-1.1-5.5-1.8-8.4-2.2l-0.9-0.1c-6-0.8-12.1-0.3-17.8,1.8
	c-14.6,5.4-25,19.5-25,36.1v0.9v91h18.8v-92.3c0-10.4,8.4-18.8,18.8-18.8h19.8L789.6,258.4L789.6,258.4z"/>
<path fill="#8B9F3B" d="M204.9,250.7h-0.8c-21.7,0-39.2,17.6-39.2,39.2v32v11.2v3.3V347c0,16.7,10.5,30.9,25.3,36.4
	c5.6,2.1,11.6,2.6,17.5,2l4.8-0.5c1.9-0.2,3.9-0.5,5.8-0.8l15.5-2.5l-1.3-25.1h-28.2c-5.7,0-10.3-4.6-10.3-10.3v-13.1h36.5
	c7.9,0,14.3-6.4,14.3-14.3v-28.2C244.9,268.6,227,250.7,204.9,250.7z"/>
<circle fill="#95AA3F" cx="65.1" cy="229.1" r="12.4"/>
<rect x="7.1" y="205" fill="#95AA3F" width="20.6" height="174.9"/>
<polygon fill="#95AA3F" points="75.1,379.9 54.4,379.9 54.4,256.9 75.1,258.1 "/>
<path fill="#95AA3F" d="M148.1,224.1l0.7-20.8l-2.9-0.5c-1.6-0.3-3.3-0.4-4.9-0.4h-0.4c-20.4,0-36.9,16.5-36.9,36.9v11.2v33V303
	v106.9l19.7-1.2V303h22v-19.6h-22v-44.4c0-8.2,6.7-14.9,14.9-14.9L148.1,224.1L148.1,224.1z"/>
<path fill="#95AA3F" d="M205.2,255.3h-0.7c-19.1,0-34.6,15.5-34.6,34.6V324v4.6V349c0,18.1,14.6,32.7,32.7,32.7h0.3h0.4l25.8-4
	l-0.7-16.4h-24.1c-8.2,0-14.8-6.6-14.8-14.8v-17.9h39.3c6.4,0,11.5-5.2,11.5-11.5v-26.6C240.4,271,224.7,255.3,205.2,255.3z"/>
<path fill="#95AA3F" d="M281.9,262.1l-0.6,0.2v-57.1h-10v174h10V270.1h23.2c12.1,0,21.8,9.8,21.8,21.8v87h9.5v-75v-11.6
	c0-18.6-15.1-33.7-33.7-33.7h-0.9C294.7,258.6,288.1,259.8,281.9,262.1z"/>
<path fill="#95AA3F" d="M375.4,261.9L375.4,261.9l-0.1,6.4h26.7c9.2,0,16.7,7.5,16.7,16.7v24.5l-19.1-3
	c-11.3-1.8-22.8,2.5-29.7,11.7c-3.9,5.2-6.1,11.6-6.1,18.5v11.9c0,17.6,14.3,31.9,31.9,31.9h1.7c17.3,0,31.3-14,31.3-31.3v-1.7
	v-41.8v-2.4v-11.8c0-18.4-14.9-33.4-33.4-33.4h-2.5C386.7,258.1,380.8,259.4,375.4,261.9z"/>
<path fill="#95AA3F" d="M493.1,258.8h0.4H493.1c-18.2,0-33.1,14.8-33.1,33.1v16.9V331v19.2c0,17.4,14.1,31.6,31.6,31.6h0.6h0.1h2.3
	c1,0,2-0.1,3-0.3c12.3-2.8,24-10.9,26.5-25.2V356v-1.2h-9.3v0.2c0,9.6-16.2,17.4-21.1,17.3l-2.7-0.2c-11.8-0.8-21.5-11.2-21.5-23
	v-57.8c0-12.4,10.1-22.5,22.5-22.5h2.4c11,0,19.9,8.9,19.9,19.9v0.2h9.8v0v-0.3c0-16.4-13.3-29.7-29.7-29.7H493.1L493.1,258.8z"/>
<rect x="554.7" y="206.2" fill="#95AA3F" width="9.4" height="173.3"/>
<path fill="#95AA3F" d="M705.6,318.9v-28.3c0-17.6-14.3-32-32-32H673c-17.6,0-31.8,14.2-31.8,31.8v34.2v8.7v19.1
	c0,16.2,13.1,29.2,29.2,29.2h0.4c6.6,0,13.1-0.9,19.4-2.8l2.7-0.8l-0.2-6l-19.6,0c-12.4,0-22.5-10.1-22.5-22.5v-25h49.2
	C703,324.7,705.6,322.1,705.6,318.9z"/>
<path fill="#95AA3F" d="M785.2,261.1l-1.4-0.5c-4-1.4-8.1-2-12.3-2h-0.8c-18.9,0-34.2,15.3-34.2,34.2v28v58.6h10v-87.7
	c0-13,10.6-23.6,23.6-23.6h15.1L785.2,261.1L785.2,261.1z"/>
<polygon fill="#95AA3F" points="586.3,315.9 619.1,260.6 608.2,260.5 575.1,316.4 611.4,379.8 622,379.5 "/>
<path fill="#FFFFFF" stroke="#D39371" stroke-width="1.7571" stroke-miterlimit="10" d="M395.6,364.2h0.7c8.5,0,15.4-7.1,15.4-15.8
	v-28.7h-14.8c-9.2,0-16.7,7.6-16.7,17.1v11.7C380.2,357.1,387.1,364.2,395.6,364.2z"/>
<path fill="#FFFFFF" stroke="#D39371" stroke-width="1.7571" stroke-miterlimit="10" d="M673.5,275.5h-0.3c-8.9,0-16,7.2-16,16v16.9
	h31.6v-17.6C688.7,282.3,681.9,275.5,673.5,275.5z"/>
<path fill="#FFFFFF" stroke="#D39371" stroke-width="1.7571" stroke-miterlimit="10" d="M204.9,282.3h-0.2c-4.4,0-8.1,3.9-8.1,8.8
	v11H213v-10.9C213,286.3,209.4,282.3,204.9,282.3z"/>
</svg>
